<?xml version="1.0" standalone="no"?>
<!DOCTYPE svg PUBLIC "-//W3C//DTD SVG 20010904//EN"
 "http://www.w3.org/TR/2001/REC-SVG-20010904/DTD/svg10.dtd">
<svg version="1.0" xmlns="http://www.w3.org/2000/svg"
 width="700.000000pt" height="700.000000pt" viewBox="0 0 700.000000 700.000000"
 preserveAspectRatio="xMidYMid meet">
<metadata>
Created by potrace 1.11, written by Peter Selinger 2001-2013
</metadata>
<g transform="translate(0.000000,700.000000) scale(0.100000,-0.100000)"
fill="#000000" stroke="none">
<path d="M0 5470 l0 -1530 1530 0 1530 0 0 1530 0 1530 -1530 0 -1530 0 0
-1530z"/>
<path d="M3939 6993 c-1 -5 -2 -693 -2 -1531 l-2 -1522 1533 0 1532 0 0 1530
0 1530 -1530 0 c-841 0 -1530 -3 -1531 -7z"/>
<path d="M4 3061 c-2 -2 -4 -692 -4 -1533 l0 -1528 1530 0 1530 0 -2 1532 -3
1532 -1523 1 c-838 0 -1526 -2 -1528 -4z"/>
<path d="M3936 3060 c-1 -3 -1 -691 -1 -1530 l1 -1525 1532 -3 1532 -2 0 1532
0 1533 -1531 0 c-842 0 -1532 -2 -1533 -5z"/>
</g>
</svg>
